<?xml version="1.0" encoding="UTF-8" standalone="no"?>
<svg
   xmlns:dc="http://purl.org/dc/elements/1.1/"
   xmlns:cc="http://creativecommons.org/ns#"
   xmlns:rdf="http://www.w3.org/1999/02/22-rdf-syntax-ns#"
   xmlns:svg="http://www.w3.org/2000/svg"
   xmlns="http://www.w3.org/2000/svg"
   id="svg13"
   version="1.1"
   height="118"
   width="580">
  <metadata
     id="metadata19">
    <rdf:RDF>
      <cc:Work
         rdf:about="">
        <dc:format>image/svg+xml</dc:format>
        <dc:type
           rdf:resource="http://purl.org/dc/dcmitype/StillImage" />
      </cc:Work>
    </rdf:RDF>
  </metadata>
  <defs
     id="defs17" />
  <g
     id="g5">
    <title
       id="title2">background</title>
    <path
       id="canvas_background"
       d="M -1,-1 H 581 V 119 H -1 Z"
       style="fill:none" />
  </g>
  <g
     id="g11">
    <title
       id="title7">Layer 1</title>
    <g
       id="svg_1"
       stroke="null">
      <path
         style="fill:#1fa78b"
         d="m 59.44336,2.86914 c -1.05978,-0.006 -2.03777,-0.00505 -2.17383,0.00195 -0.13572,0.006 -0.58045,0.02543 -0.98828,0.04493 -0.40751,0.0191 -1.03802,0.05893 -1.40039,0.08593 -0.36237,0.027 -0.9624,0.0787 -1.33398,0.11524 -0.37127,0.0366 -0.86125,0.0882 -1.0879,0.11523 -0.22631,0.0267 -0.68417,0.0854 -1.01953,0.13086 C 51.10442,3.40878 50.59263,3.48384 50.30273,3.5293 50.01284,3.5744 49.44104,3.671 49.0332,3.74414 48.6257,3.81694 48.01027,3.93599 47.66602,4.00781 47.32176,4.07961 46.78208,4.19673 46.46484,4.26953 46.14793,4.34203 45.54759,4.48864 45.13086,4.5957 44.71413,4.70244 44.05987,4.87957 43.67773,4.98828 43.2956,5.09699 42.60317,5.30523 42.13867,5.45117 41.67417,5.59711 40.93393,5.84418 40.49414,6 40.05435,6.15549 39.34587,6.41668 38.91992,6.58008 38.4943,6.7438 37.81213,7.01782 37.4043,7.18945 c -0.40751,0.17131 -1.03802,0.44598 -1.40039,0.60938 -0.36238,0.1634 -1.02946,0.4785 -1.48243,0.69922 -0.45296,0.22072 -1.12645,0.56147 -1.49804,0.75781 -0.3716,0.19667 -0.97834,0.52813 -1.34961,0.73633 -0.37127,0.2082 -0.9498,0.5419 -1.28516,0.74219 -0.33536,0.19995 -0.93537,0.5712 -1.33398,0.82421 -0.39861,0.25267 -1.00058,0.64575 -1.33594,0.87305 -0.33503,0.22731 -0.83814,0.57609 -1.11914,0.77539 -0.28067,0.19931 -0.80112,0.58212 -1.15625,0.84961 -0.35546,0.26783 -0.9125,0.69747 -1.23633,0.95508 -0.32416,0.25761 -0.8122,0.65323 -1.08398,0.88086 -0.27178,0.22731 -0.72613,0.6188 -1.00977,0.86719 -0.28397,0.24839 -0.81757,0.72968 -1.18555,1.07031 -0.36797,0.34063 -1.0251,0.97531 -1.46093,1.41015 -0.43584,0.43485 -1.02079,1.03357 -1.29883,1.33204 -0.27837,0.29846 -0.71601,0.78204 -0.97461,1.07226 -0.25827,0.29056 -0.65807,0.74971 -0.88867,1.02149 -0.23027,0.27178 -0.68175,0.82014 -1.00196,1.21875 -0.3202,0.39861 -0.80568,1.02044 -1.07812,1.38281 -0.27211,0.36238 -0.69951,0.94925 -0.94922,1.30273 -0.25004,0.35315 -0.68064,0.98366 -0.95703,1.40039 -0.27606,0.41673 -0.64955,0.99331 -0.83008,1.28321 -0.18053,0.28989 -0.49015,0.80136 -0.68945,1.13671 -0.19898,0.33504 -0.51987,0.89208 -0.71094,1.23633 -0.1914,0.34426 -0.47278,0.86245 -0.62695,1.15235 -0.15418,0.28989 -0.4173,0.80008 -0.58399,1.13281 -0.16636,0.33305 -0.45736,0.9398 -0.64843,1.34961 -0.19107,0.41014 -0.50039,1.10256 -0.6875,1.53906 -0.18712,0.43616 -0.41817,0.98452 -0.51172,1.21875 -0.0936,0.23389 -0.2729,0.6998 -0.40039,1.03516 -0.12716,0.33536 -0.34856,0.94373 -0.49219,1.35156 -0.14363,0.40751 -0.38208,1.11788 -0.52734,1.58008 -0.14529,0.46186 -0.36635,1.20437 -0.49219,1.64844 -0.12584,0.44375 -0.33825,1.25136 -0.47266,1.79492 -0.13474,0.54356 -0.31924,1.33835 -0.41015,1.76562 -0.09091,0.42728 -0.23309,1.14634 -0.31446,1.59766 -0.0814,0.45165 -0.18501,1.05776 -0.23047,1.34765 -0.0451,0.2899 -0.11989,0.80136 -0.16601,1.13672 -0.0458,0.33503 -0.11926,0.93538 -0.16406,1.33399 -0.04481,0.39861 -0.11058,1.07208 -0.14649,1.49805 -0.0356,0.42561 -0.08081,1.03432 -0.09961,1.35156 -0.0191,0.31691 -0.05056,0.93874 -0.06836,1.38281 -0.0181,0.44374 -0.03165,1.36336 -0.03125,2.04297 0,0.67929 0.01315,1.60563 0.03125,2.05859 0.0178,0.45297 0.04926,1.08315 0.06836,1.40039 0.0191,0.31691 0.06401,0.92562 0.09961,1.35157 0.0359,0.42562 0.10298,1.10583 0.14844,1.51367 0.0458,0.4075 0.12728,1.06146 0.18164,1.45117 0.0547,0.38939 0.13651,0.93775 0.18164,1.21875 0.0448,0.28068 0.13976,0.83576 0.21289,1.23437 0.0728,0.39861 0.21593,1.11095 0.31641,1.58204 0.10014,0.47108 0.29617,1.31527 0.4375,1.87695 0.14099,0.56168 0.3422,1.31732 0.44531,1.67969 0.10344,0.36238 0.30366,1.02945 0.44531,1.48242 0.14199,0.45296 0.37014,1.14348 0.50586,1.5332 0.13573,0.38938 0.33498,0.94448 0.44336,1.23438 0.10838,0.2899 0.31726,0.83025 0.46484,1.19921 0.14759,0.36929 0.40108,0.97893 0.5625,1.35547 0.16109,0.37654 0.43608,0.99357 0.61133,1.3711 0.17493,0.37785 0.55421,1.15371 0.8418,1.72461 0.28726,0.57058 0.72876,1.41156 0.98242,1.86914 0.25399,0.45725 0.68236,1.1978 0.95117,1.64648 0.26882,0.44836 0.693,1.13373 0.94336,1.52344 0.25037,0.38939 0.64824,0.99168 0.88477,1.33594 0.2362,0.34425 0.58531,0.84062 0.77539,1.10351 0.19008,0.26255 0.50262,0.68384 0.69336,0.9375 0.19074,0.25366 0.53083,0.69838 0.75781,0.98828 0.22731,0.2899 0.70476,0.87679 1.06055,1.30274 0.35611,0.42562 0.85891,1.01088 1.11718,1.30078 0.25828,0.2899 0.75465,0.82957 1.10352,1.20117 0.34854,0.37126 1.01049,1.04704 1.4707,1.5 0.46055,0.45297 1.14078,1.10016 1.51172,1.4375 0.37094,0.33766 0.85962,0.77307 1.08594,0.96875 0.22665,0.19601 0.66464,0.5663 0.97266,0.82227 0.30801,0.25629 0.80472,0.65736 1.10351,0.89258 0.29912,0.2352 0.75538,0.58948 1.01563,0.78515 0.26025,0.19602 0.74349,0.54766 1.07226,0.7832 0.32844,0.23521 1.01221,0.70465 1.51953,1.04297 0.50733,0.33833 1.25011,0.81802 1.65235,1.06641 0.40223,0.24806 1.078,0.65078 1.5,0.89258 0.42233,0.24213 1.11539,0.6262 1.54101,0.85351 0.42596,0.22731 1.01957,0.53436 1.31836,0.6836 0.29912,0.14956 0.81059,0.39889 1.13672,0.55273 0.32614,0.15384 0.90467,0.41565 1.28516,0.58399 0.38049,0.16801 1.01707,0.4385 1.41601,0.60156 0.39927,0.16275 1.09012,0.43421 1.53321,0.60156 0.44341,0.16702 1.30974,0.47054 1.92578,0.67578 0.61603,0.20523 1.47531,0.47798 1.91015,0.60547 0.43485,0.12716 1.1321,0.31999 1.54883,0.42969 0.41673,0.10937 1.11398,0.28233 1.54883,0.38281 0.43485,0.1008 1.22738,0.27086 1.76172,0.37695 0.53466,0.10607 1.33556,0.25304 1.77929,0.32618 0.44408,0.0735 1.19298,0.18512 1.66407,0.24804 0.47108,0.0632 1.21836,0.15018 1.66211,0.19532 0.44407,0.0454 1.00079,0.0997 1.23632,0.11914 0.23555,0.0191 0.76336,0.0556 1.17383,0.082 0.41047,0.0264 1.34964,0.0652 2.08789,0.0859 0.99851,0.028 1.68449,0.0277 2.67969,0 0.73595,-0.0205 1.68766,-0.0589 2.11328,-0.0859 0.42596,-0.027 1.0478,-0.0712 1.38281,-0.0996 0.33538,-0.0283 0.94406,-0.0883 1.35157,-0.13282 0.40783,-0.0448 1.11822,-0.13336 1.58008,-0.19726 0.46219,-0.0642 1.10745,-0.16082 1.43359,-0.21484 0.32613,-0.0543 0.9114,-0.15767 1.30078,-0.23047 0.38939,-0.0731 1.07668,-0.21367 1.52734,-0.3125 0.45033,-0.0985 1.23454,-0.28429 1.74219,-0.41211 0.50765,-0.12815 1.25849,-0.32999 1.66797,-0.44727 0.40981,-0.11694 1.07882,-0.31716 1.48633,-0.44531 0.40783,-0.12814 1.03802,-0.33638 1.40039,-0.46289 0.36237,-0.1265 0.91942,-0.32737 1.23633,-0.44531 0.31724,-0.11793 0.8704,-0.33098 1.23047,-0.47461 0.36006,-0.14396 0.96041,-0.39263 1.33398,-0.55274 0.3739,-0.1601 0.96043,-0.42163 1.30469,-0.58008 0.34425,-0.15813 1.05275,-0.49984 1.57226,-0.75976 0.51985,-0.25992 1.14167,-0.57756 1.38282,-0.70703 0.24147,-0.1298 0.65346,-0.35603 0.91601,-0.50196 0.26289,-0.14594 0.76795,-0.43633 1.1211,-0.64453 0.35348,-0.20787 0.9384,-0.56275 1.30078,-0.78906 0.36237,-0.22665 1.00797,-0.6444 1.43359,-0.92969 0.42595,-0.28528 1.01761,-0.69344 1.31641,-0.90625 0.29912,-0.21281 0.7955,-0.5744 1.10351,-0.80468 0.30802,-0.23027 0.81981,-0.62463 1.13672,-0.875 0.31724,-0.25036 0.8287,-0.66396 1.13672,-0.91993 0.30802,-0.2563 0.80472,-0.68147 1.10352,-0.94336 0.29846,-0.26157 0.75826,-0.67451 1.02148,-0.91796 0.26289,-0.24345 0.76342,-0.71705 1.11328,-1.05274 0.34986,-0.33569 0.98197,-0.97324 1.4043,-1.41797 0.42199,-0.44441 0.93605,-0.99439 1.14062,-1.2207 0.20491,-0.22665 0.63196,-0.71663 0.95117,-1.08789 0.3189,-0.3716 0.76684,-0.90488 0.99415,-1.18555 0.2273,-0.281 0.61266,-0.76903 0.85742,-1.08594 0.2451,-0.31724 0.64651,-0.85247 0.89062,-1.1875 0.2441,-0.33536 0.57781,-0.80157 0.74219,-1.03711 0.16439,-0.23554 0.52858,-0.7775 0.80859,-1.20312 0.28035,-0.42596 0.64357,-0.98744 0.80664,-1.25 0.1634,-0.26288 0.47014,-0.77178 0.68165,-1.13086 0.21183,-0.35875 0.57022,-0.98926 0.79687,-1.40039 0.22698,-0.41079 0.64892,-1.21748 0.9375,-1.79102 0.28825,-0.57354 0.66688,-1.35065 0.8418,-1.72851 0.17493,-0.37752 0.45021,-0.99842 0.61328,-1.37891 0.1634,-0.38049 0.45026,-1.07775 0.63672,-1.54883 0.18613,-0.47109 0.43737,-1.12981 0.55859,-1.46484 0.12123,-0.33536 0.33686,-0.95915 0.47852,-1.38476 0.14198,-0.42596 0.34766,-1.07024 0.45703,-1.4336 0.1097,-0.36336 0.27302,-0.92681 0.36328,-1.25195 0.0899,-0.32515 0.25388,-0.9547 0.36523,-1.39844 0.11101,-0.44408 0.2814,-1.17149 0.37891,-1.61523 0.0972,-0.44407 0.22972,-1.08099 0.29297,-1.41602 0.0636,-0.33536 0.16722,-0.92029 0.23047,-1.30078 0.0633,-0.38049 0.15983,-1.011 0.21484,-1.40039 0.0553,-0.38971 0.13683,-1.02663 0.18164,-1.41602 0.0448,-0.38971 0.11154,-1.05006 0.14844,-1.46679 0.0366,-0.41673 0.0898,-1.10436 0.11719,-1.52735 0.027,-0.42331 0.0651,-1.37851 0.0859,-2.125 0.0287,-1.02156 0.0303,-1.6914 0.002,-2.70703 -0.0204,-0.74188 -0.0606,-1.69743 -0.0879,-2.12305 -0.0274,-0.42595 -0.0807,-1.11452 -0.11719,-1.53125 -0.0369,-0.41673 -0.10364,-1.07741 -0.14844,-1.46679 -0.0448,-0.38972 -0.12662,-1.02664 -0.18164,-1.41602 -0.0553,-0.38939 -0.1452,-0.97465 -0.19922,-1.30078 -0.0537,-0.32614 -0.1557,-0.91334 -0.22851,-1.30273 -0.0728,-0.38939 -0.21432,-1.07828 -0.31446,-1.53125 -0.0998,-0.45297 -0.26346,-1.15022 -0.36328,-1.54883 -0.0995,-0.39861 -0.26023,-1.01404 -0.35742,-1.36719 -0.0972,-0.35347 -0.25313,-0.89316 -0.3457,-1.20117 -0.0926,-0.30802 -0.29568,-0.94689 -0.45118,-1.41797 -0.15514,-0.47109 -0.37849,-1.12308 -0.49609,-1.44922 -0.11794,-0.32613 -0.33963,-0.9178 -0.49414,-1.31641 -0.15483,-0.39861 -0.45549,-1.13276 -0.66797,-1.63085 -0.21282,-0.49843 -0.53207,-1.21717 -0.70898,-1.59766 -0.1769,-0.38049 -0.48463,-1.01936 -0.6836,-1.41797 -0.19898,-0.39861 -0.48807,-0.96205 -0.64257,-1.25195 -0.1545,-0.2899 -0.42787,-0.79301 -0.60938,-1.11914 -0.18152,-0.32614 -0.55244,-0.96306 -0.82422,-1.41602 -0.27145,-0.45297 -0.69502,-1.13513 -0.93945,-1.51562 -0.24444,-0.38049 -0.63652,-0.97411 -0.87305,-1.31836 -0.2362,-0.34426 -0.56382,-0.81079 -0.72656,-1.03711 -0.16241,-0.22664 -0.4958,-0.67972 -0.74023,-1.00586 -0.24444,-0.32613 -0.72798,-0.94797 -1.07618,-1.38281 -0.34821,-0.43485 -0.82439,-1.01338 -1.05664,-1.28516 -0.23258,-0.27178 -0.60604,-0.70142 -0.83203,-0.95508 -0.22598,-0.25366 -0.68803,-0.75677 -1.02734,-1.11914 -0.33965,-0.36237 -1.0003,-1.03748 -1.46875,-1.5 -0.46846,-0.4625 -1.05406,-1.02594 -1.29883,-1.25193 C 96.91702,17.54745 96.4601,17.13448 96.14648,16.85742 95.83286,16.58004 95.3134,16.13438 94.99023,15.86523 94.66706,15.59609 94.18961,15.20655 93.92969,15 93.66977,14.79345 93.18302,14.41643 92.84766,14.16211 92.51263,13.90779 91.97935,13.51505 91.66211,13.28906 91.3452,13.06274 90.81192,12.69019 90.47656,12.46289 90.14153,12.23558 89.65156,11.91281 89.38867,11.74414 89.12612,11.57548 88.62301,11.26006 88.26953,11.04297 87.91638,10.8262 87.33786,10.48223 86.98438,10.2793 86.63122,10.07637 86.04884,9.7536 85.69141,9.56055 85.3343,9.36751 84.61524,8.99527 84.09375,8.73438 83.57226,8.47314 82.85416,8.12661 82.49805,7.96289 82.14193,7.79916 81.58717,7.55113 81.26367,7.41211 80.94017,7.27276 80.3716,7.03499 80,6.88477 79.62873,6.73455 79.00465,6.4936 78.61328,6.34766 78.22159,6.20205 77.52434,5.95465 77.06445,5.79883 76.60424,5.64268 75.84218,5.39817 75.37109,5.25586 74.90001,5.11354 74.26759,4.92871 73.96484,4.8457 73.66243,4.7627 73.02582,4.59841 72.55078,4.48047 72.07541,4.3622 71.34383,4.19313 70.92578,4.10352 70.50774,4.01392 69.88527,3.8875 69.54102,3.82227 69.19676,3.75737 68.55985,3.64538 68.125,3.57422 67.69015,3.50302 66.94092,3.39267 66.46094,3.33008 65.98096,3.26718 65.21664,3.1786 64.76367,3.13281 64.3107,3.08731 63.62214,3.02767 63.23242,3 62.84304,2.972 62.26451,2.93316 61.94727,2.91406 61.63036,2.89496 60.50347,2.87474 59.44336,2.86914 Z m -0.04883,16.13867 10.11328,0.0059 0.26172,0.05469 c 0.14364,0.0303 0.39294,0.0938 0.55469,0.14062 0.16175,0.0464 0.43833,0.14686 0.61523,0.22461 0.17691,0.0777 0.43939,0.21252 0.58203,0.29883 0.14297,0.0866 0.37849,0.25029 0.52344,0.36328 0.14495,0.11299 0.39553,0.34498 0.5586,0.51563 0.16306,0.17097 0.38736,0.44306 0.49804,0.60547 0.11102,0.16274 0.27949,0.44993 0.37305,0.63672 0.0935,0.18679 0.21517,0.47106 0.26953,0.63281 0.054,0.16175 0.12749,0.4316 0.16406,0.59961 0.0369,0.16801 0.07544,0.49977 0.08594,0.73828 l 0.01953,0.43359 -0.08594,0.08594 -0.08593,0.08398 H 68.00977 L 68,29.70898 l -0.0078,5.2793 -0.10742,0.21875 c -0.0722,0.1466 -0.17162,0.27883 -0.30274,0.40039 -0.12584,0.11662 -0.26356,0.20552 -0.38281,0.25 -0.10246,0.0382 -0.2706,0.07935 -0.37305,0.08985 -0.12452,0.0132 -0.25645,7.8e-4 -0.39844,-0.03516 -0.11694,-0.03 -0.27802,-0.0922 -0.35742,-0.13867 -0.0791,-0.0464 -0.20291,-0.14433 -0.27539,-0.2168 -0.0725,-0.0725 -0.17933,-0.23099 -0.23633,-0.35156 l -0.10351,-0.21875 -0.01563,-5.26953 -0.01757,-5.27149 -6.16797,-0.0078 -6.16797,-0.0098 v 5.13477 c 0,3.31143 -0.01181,5.19756 -0.03321,5.31055 -0.0181,0.0962 -0.0698,0.25278 -0.11328,0.34765 -0.0435,0.0952 -0.14037,0.24121 -0.21679,0.32422 -0.0804,0.0873 -0.2338,0.19583 -0.36524,0.26172 -0.12716,0.0636 -0.30704,0.12387 -0.41015,0.13672 -0.10839,0.0135 -0.26582,0.007 -0.38672,-0.01758 -0.11234,-0.0217 -0.29043,-0.0833 -0.39453,-0.13867 -0.10443,-0.0553 -0.24721,-0.16477 -0.31836,-0.24219 -0.0712,-0.0774 -0.1668,-0.21315 -0.21094,-0.30078 -0.0441,-0.0876 -0.0968,-0.23779 -0.11719,-0.33398 -0.0263,-0.12486 -0.03711,-1.63753 -0.03711,-5.32813 v -5.1543 H 44.65234 L 44.58789,24.36328 C 44.55199,24.32738 44.5122,24.25904 44.5,24.21094 c -0.0119,-0.0484 -0.005,-0.2666 0.01562,-0.48633 0.02081,-0.21973 0.06145,-0.51075 0.08985,-0.64649 0.028,-0.13605 0.1018,-0.40044 0.16406,-0.58789 0.0623,-0.18745 0.18741,-0.48327 0.27735,-0.6582 0.0899,-0.17493 0.23367,-0.4249 0.32031,-0.55469 0.087,-0.1298 0.26601,-0.36404 0.39843,-0.51953 0.13277,-0.15549 0.36348,-0.38557 0.51172,-0.50976 0.14858,-0.12453 0.3799,-0.2997 0.51563,-0.39063 0.13605,-0.0909 0.38185,-0.23113 0.54492,-0.3125 0.16307,-0.0814 0.39856,-0.18726 0.52539,-0.23437 0.12683,-0.0471 0.34279,-0.11448 0.47852,-0.15039 0.13605,-0.0359 0.35841,-0.08051 0.49414,-0.09961 0.13605,-0.0194 0.29134,-0.04028 0.3457,-0.04688 0.0544,-0.007 4.65046,-0.0089 10.21289,-0.0059 z m 110.37891,0.39063 c -10.23696,0 -16.48633,6.57318 -16.48633,17.56445 v 59.91406 c 0,0.43103 0.3232,0.64649 0.64648,0.64649 h 2.15625 c 0.43103,0 0.64649,-0.21546 0.64649,-0.64649 V 45.47656 h 18.85742 c 0.32328,0 0.64648,-0.32287 0.64648,-0.7539 v -1.83204 c 0,-0.32326 -0.3232,-0.64648 -0.64648,-0.64648 h -18.85742 v -5.28125 c 0,-9.05163 4.52555,-14.43945 13.2539,-14.43945 1.40085,0 4.09519,0.10871 6.14258,0.32422 0.53879,0.10776 0.86133,-0.10804 0.86133,-0.53907 v -1.83203 c 0,-0.43103 -0.21545,-0.64615 -0.64648,-0.7539 -2.15515,-0.21552 -5.06562,-0.32422 -6.57422,-0.32422 z m 199.39453,1.07812 c -0.43103,0 -0.64649,0.21546 -0.64649,0.64649 v 24.89257 c -4.63357,-3.0172 -10.56061,-4.95703 -16.81054,-4.95703 -14.11623,0 -22.73633,7.43571 -22.73633,23.06055 v 11.5293 c 0,15.84035 8.72751,22.95312 22.84375,22.95312 6.89648,0 13.79439,-1.40081 19.61328,-3.77148 0.32327,-0.10775 0.53711,-0.43259 0.53711,-0.75586 V 21.12305 c 0,-0.43103 -0.32288,-0.64649 -0.75391,-0.64649 z m 20.93164,3.98633 c -1.61638,0 -2.80078,1.07863 -2.80078,2.80273 0,1.61636 1.1844,2.69336 2.80078,2.69336 1.61635,0 2.80273,-1.07697 2.80273,-2.69336 0,-1.72412 -1.18638,-2.80273 -2.80273,-2.80273 z m 160.12695,3.77149 c -0.43103,0 -0.64648,0.21545 -0.64648,0.64648 v 52.04687 c 0,11.09902 6.25098,17.45704 16.5957,17.45704 1.50859,0 4.41748,-0.10676 6.46484,-0.32227 0.43103,-0.10776 0.64649,-0.32289 0.64649,-0.75391 v -1.83203 c 0,-0.43103 -0.21544,-0.64648 -0.64649,-0.64648 -2.15512,0.21552 -4.84849,0.32226 -6.46484,0.32226 -8.62061,0 -13.14648,-5.2804 -13.14648,-14.33203 V 45.47656 h 18.21093 c 0.32327,0 0.64649,-0.32287 0.64649,-0.7539 v -1.83204 c 0,-0.32326 -0.32322,-0.64648 -0.64649,-0.64648 H 553.0293 V 28.88086 c -0.10776,-0.43103 -0.32288,-0.64649 -0.75391,-0.64648 z m -506.79297,9.30468 0.0078,25.60547 0.0078,25.60547 0.0625,0.17969 c 0.0333,0.0995 0.11027,0.27822 0.17187,0.39648 0.0616,0.11827 0.17969,0.29089 0.26172,0.38477 0.082,0.0939 0.25723,0.24406 0.38867,0.33203 0.13178,0.0879 0.34931,0.19608 0.48438,0.24023 0.2049,0.0672 0.31054,0.08008 0.64062,0.08008 0.32845,0 0.4361,-0.01252 0.63672,-0.07812 0.13276,-0.0435 0.32945,-0.13718 0.4375,-0.20704 0.10806,-0.06979 0.26594,-0.19722 0.34961,-0.2832 0.084,-0.086 0.20753,-0.24289 0.27539,-0.34765 0.0679,-0.10443 0.15867,-0.28154 0.20118,-0.39454 l 0.07617,-0.20507 0.01757,-25.64649 0.01563,-25.64453 11.60352,-0.0098 11.60546,-0.0078 0.0078,25.60547 0.0078,25.60547 0.09375,0.26367 c 0.0511,0.14494 0.15244,0.35673 0.22656,0.47071 0.0741,0.1143 0.22558,0.28885 0.33594,0.38867 0.11003,0.0998 0.30481,0.23298 0.43164,0.29492 0.12716,0.0619 0.31773,0.13476 0.42578,0.16211 0.10805,0.0277 0.32498,0.05078 0.48047,0.05078 0.15549,0 0.37047,-0.02318 0.47852,-0.05078 0.10805,-0.0277 0.30537,-0.10277 0.43945,-0.16602 0.18481,-0.087 0.3047,-0.17543 0.49609,-0.36914 0.14693,-0.14857 0.29356,-0.33782 0.35352,-0.45312 0.0566,-0.10871 0.13046,-0.27074 0.16406,-0.36133 l 0.06055,-0.16406 0.01562,-25.63086 0.01758,-25.62891 0.6582,-0.0098 c 0.36238,-0.006 0.85362,0.005 1.0918,0.02343 0.23818,0.0181 0.55105,0.05694 0.69336,0.08594 0.14231,0.029 0.4115,0.10376 0.59961,0.16602 0.1881,0.0626 0.4708,0.17585 0.62695,0.25195 0.15615,0.0761 0.43883,0.24101 0.62891,0.36719 0.24048,0.15911 0.47184,0.35661 0.75976,0.64453 0.26915,0.26915 0.48702,0.52201 0.6211,0.72461 0.11365,0.17097 0.26638,0.43056 0.33984,0.57617 0.0731,0.14594 0.18061,0.39041 0.24024,0.54492 0.0593,0.15417 0.1514,0.45835 0.20312,0.67578 l 0.0918,0.39649 v 41.93554 l -0.0918,0.39453 c -0.0517,0.21743 -0.14672,0.52933 -0.20898,0.69141 -0.0626,0.16208 -0.18868,0.43832 -0.28125,0.61523 -0.0926,0.17659 -0.28154,0.47565 -0.42188,0.66211 -0.14001,0.18645 -0.38194,0.4608 -0.53711,0.60938 -0.15549,0.1489 -0.41249,0.36741 -0.57226,0.48633 -0.15978,0.11859 -0.48321,0.31078 -0.71875,0.42773 -0.23555,0.11695 -0.54389,0.25044 -0.68555,0.29688 -0.14166,0.0467 -0.40092,0.11577 -0.57617,0.15234 -0.17526,0.0366 -0.51251,0.0795 -0.74805,0.0957 -0.23587,0.0165 -0.58851,0.03105 -0.7832,0.03125 H 75.289 v 1.82032 c 0,1.08118 -0.0131,1.90798 -0.0332,2.03515 -0.0184,0.1176 -0.066,0.3098 -0.10352,0.42774 -0.0379,0.1176 -0.12001,0.30979 -0.18359,0.42773 -0.0632,0.1176 -0.18904,0.30789 -0.2793,0.42188 -0.0906,0.11365 -0.26803,0.28756 -0.39453,0.38672 -0.12617,0.09879 -0.33699,0.23135 -0.4668,0.29492 -0.12979,0.0636 -0.35505,0.147 -0.5,0.18554 -0.1927,0.0507 -0.36357,0.06932 -0.64062,0.07032 -0.25827,0.001 -0.45224,-0.01674 -0.60938,-0.05664 -0.12682,-0.0323 -0.337,-0.1064 -0.46679,-0.16602 -0.13013,-0.0593 -0.30919,-0.15717 -0.39649,-0.2168 -0.0876,-0.06 -0.23875,-0.18413 -0.33593,-0.27539 -0.0972,-0.0916 -0.24125,-0.25649 -0.32032,-0.36719 -0.0791,-0.11068 -0.18815,-0.29613 -0.24218,-0.4121 -0.0543,-0.11563 -0.13202,-0.32966 -0.17188,-0.47461 l -0.07226,-0.26368 -0.01368,-1.91796 -0.01367,-1.91993 h -21.9668 v 1.83985 c 0,1.13884 -0.01375,1.91197 -0.03515,2.0332 -0.0191,0.10739 -0.0701,0.30858 -0.11524,0.44727 -0.0451,0.1387 -0.13787,0.34243 -0.20507,0.45312 -0.0669,0.11069 -0.18849,0.28364 -0.26954,0.38477 -0.081,0.10114 -0.23666,0.25711 -0.3457,0.34375 -0.10937,0.087 -0.29417,0.21082 -0.41211,0.27539 -0.1176,0.0642 -0.34865,0.15665 -0.51172,0.20508 -0.25168,0.0748 -0.35717,0.08759 -0.70703,0.08789 -0.31889,3.3e-4 -0.47186,-0.01562 -0.67578,-0.07032 -0.14495,-0.0392 -0.35575,-0.11526 -0.46875,-0.16796 -0.11299,-0.05271 -0.27697,-0.14383 -0.36328,-0.20313 -0.0863,-0.0593 -0.22779,-0.17545 -0.31641,-0.25781 -0.0883,-0.0824 -0.22369,-0.23895 -0.30078,-0.34766 -0.0771,-0.10871 -0.18619,-0.28871 -0.24218,-0.40039 -0.056,-0.112 -0.13527,-0.31255 -0.17579,-0.44531 L 42.85932,92.33978 42.8476,90.37689 42.8378,88.414 42.17374,88.39056 c -0.36435,-0.0122 -0.76606,-0.03724 -0.89453,-0.05664 -0.12848,-0.0191 -0.3531,-0.0637 -0.49805,-0.0996 C 40.6363,88.19808 40.41394,88.13107 40.28711,88.08594 40.16061,88.04044 39.93375,87.9455 39.7832,87.875 39.63265,87.8045 39.36344,87.65178 39.18555,87.53516 39.00765,87.41888 38.74037,87.21477 38.5918,87.08398 38.44355,86.9532 38.22439,86.73406 38.10547,86.5957 37.98654,86.45734 37.80592,86.21733 37.70312,86.0625 37.60068,85.90734 37.455,85.65224 37.37891,85.49609 c -0.0764,-0.15582 -0.19642,-0.45741 -0.26758,-0.67187 -0.0708,-0.21445 -0.15618,-0.53117 -0.18945,-0.70313 l -0.06055,-0.31445 -0.0098,-20.58789 c -0.007,-14.54796 3.4e-4,-20.70095 0.02539,-20.9668 0.0198,-0.20721 0.06471,-0.50304 0.09961,-0.6582 0.0349,-0.15549 0.10616,-0.40832 0.15821,-0.5625 0.0524,-0.15417 0.15731,-0.40861 0.23242,-0.56641 0.0754,-0.15779 0.24325,-0.44722 0.37304,-0.64257 0.16439,-0.24774 0.35577,-0.47557 0.63282,-0.75196 0.25003,-0.24938 0.51492,-0.47501 0.71093,-0.60547 0.17131,-0.11431 0.45815,-0.28212 0.63868,-0.37304 0.18085,-0.0906 0.4796,-0.21414 0.66211,-0.27344 0.18217,-0.0596 0.45748,-0.13277 0.61132,-0.16406 0.15385,-0.031 0.41311,-0.06853 0.57618,-0.08203 0.16339,-0.0135 0.64821,-0.0267 1.07812,-0.0293 v 0.002 z m 160.15821,3.51953 c -7.75852,0 -14.65548,2.26338 -19.28907,5.4961 -0.21551,0.21552 -0.10775,0.53806 0,0.86133 l 0.97071,1.50781 c 0.21552,0.21551 0.53772,0.32488 0.96875,0.10937 4.09478,-2.58618 10.45344,-4.74218 17.24219,-4.74218 11.96107,0 16.59376,6.46616 16.59374,16.70312 v 5.60352 c -4.31029,-0.96982 -10.23607,-2.04883 -16.59374,-2.04883 -13.90074,0 -22.08985,6.03477 -22.08985,16.81055 0,10.8835 9.48219,17.24218 22.08985,17.24218 7.97406,0 14.97808,-1.83184 19.5039,-3.77148 0.43101,-0.10775 0.53906,-0.54034 0.53906,-0.75586 v -33.1875 c 0,-12.06884 -6.35809,-19.82813 -19.93554,-19.82813 z m 54.31054,0 c -6.14217,0 -12.93115,1.29307 -18.10351,3.77149 -0.32327,0.10776 -0.53906,0.43062 -0.53906,0.7539 v 51.29297 c 0,0.43103 0.32321,0.64649 0.64648,0.64649 h 2.1543 c 0.43103,0 0.64648,-0.21546 0.64648,-0.64649 v -49.7832 c 4.63358,-1.83188 10.2378,-2.80273 15.41016,-2.80273 3.556,0 7.3275,0.32253 10.66797,0.86132 0.43103,0.10775 0.64648,-0.10608 0.64648,-0.53711 V 42.7832 c 0,-0.43103 -0.10769,-0.6481 -0.64648,-0.75586 -3.44822,-0.53879 -7.21906,-0.96875 -10.88282,-0.96875 z m 37.90235,0 c -12.60764,0 -21.44336,7.43595 -21.44336,20.47461 v 17.45508 c 0,12.39211 10.12882,19.61328 21.44336,19.61328 9.15938,0 15.84135,-4.09629 20.36719,-8.29883 0.43101,-0.21552 0.43068,-0.53805 0.10742,-0.86132 l -1.18555,-1.40039 c -0.21552,-0.32327 -0.53806,-0.32294 -0.86133,-0.10743 -4.09479,3.66376 -9.91524,7.54297 -18.32031,7.54297 -9.80595,0 -18.10156,-6.0358 -18.10156,-16.48828 v -7.11133 h 38.79101 c 0.32328,0 0.64649,-0.21545 0.64649,-0.64648 V 61.5332 c 0,-13.03866 -8.83575,-20.47461 -21.44336,-20.47461 z m 131.09961,0 c -6.14218,0 -12.93116,1.29307 -18.10352,3.77149 -0.32327,0.10776 -0.53906,0.43062 -0.53906,0.7539 v 51.29297 c 0,0.43103 0.32321,0.64649 0.64648,0.64649 h 2.15625 c 0.43103,0 0.64649,-0.21546 0.64649,-0.64649 v -49.7832 c 4.63358,-1.83188 10.23584,-2.80273 15.4082,-2.80273 3.55599,0 7.32749,0.32253 10.66797,0.86132 0.43103,0.10775 0.64648,-0.10608 0.64648,-0.53711 V 42.7832 c 0,-0.43103 -0.10769,-0.6481 -0.64648,-0.75586 -3.44824,-0.53879 -7.21905,-0.96875 -10.88281,-0.96875 z m 37.90429,0 c -12.60763,0 -21.44531,7.43595 -21.44531,20.47461 v 17.45508 c 0,12.39211 10.13077,19.61328 21.44531,19.61328 9.15939,0 15.83942,-4.09629 20.36524,-8.29883 0.43103,-0.21552 0.4307,-0.53805 0.10742,-0.86132 l -1.18555,-1.40039 c -0.21551,-0.32327 -0.53806,-0.32294 -0.86132,-0.10743 -4.09479,3.66376 -9.91328,7.54297 -18.31836,7.54297 -9.80593,0 -18.10352,-6.0358 -18.10352,-16.48828 v -7.11133 h 38.79297 c 0.32327,0 0.64648,-0.21545 0.64648,-0.64648 V 61.5332 c 0,-13.03866 -8.83573,-20.47461 -21.44336,-20.47461 z m 54.71875,0 c -13.46968,0 -21.44336,8.83653 -21.44336,19.93555 v 17.67188 c 0,11.09902 7.97368,19.93554 21.44336,19.93554 7.21976,0 13.14661,-2.26358 18.75,-6.68164 0.43103,-0.21551 0.43232,-0.64742 0.2168,-0.9707 l -1.07812,-1.40039 c -0.21552,-0.32328 -0.53968,-0.43069 -0.97071,-0.10742 -5.38787,3.98703 -10.77546,6.03515 -17.02539,6.03515 -11.4223,0 -17.88672,-7.5434 -17.88672,-16.81054 V 60.99414 c 0,-9.15939 6.35666,-16.70312 17.88672,-16.70312 5.8189,0 10.66816,1.50845 15.625,5.06445 0.43103,0.32327 0.64744,0.1081 0.9707,-0.10742 l 0.96876,-1.50782 c 0.2155,-0.32328 0.21618,-0.64743 -0.21485,-0.9707 -5.28011,-3.77151 -10.77674,-5.71094 -17.24219,-5.71094 z m -130.50586,1.07813 c -0.43103,0 -0.64648,0.32287 -0.64648,0.7539 v 53.98633 c 0,0.43103 0.21545,0.64649 0.64648,0.64649 h 2.15625 c 0.43101,0 0.64649,-0.21546 0.64649,-0.64649 V 42.89062 c 0,-0.43103 -0.21548,-0.7539 -0.64649,-0.7539 z m -93.21679,2.1543 c 10.77573,0 17.99609,6.25091 17.99609,17.24218 v 7.32618 H 277.81055 V 61.5332 c 0,-11.09903 7.11062,-17.24218 17.99414,-17.24218 z m 56.01367,0 c 6.03442,0 11.96179,1.93914 16.70312,5.17187 v 43.10352 c -4.8491,1.72412 -10.6687,2.91015 -16.70312,2.91015 -12.28434,0 -19.3965,-5.81965 -19.39648,-19.82812 v -11.5293 c 0,-13.90072 7.00438,-19.82812 19.39648,-19.82812 z m 112.99023,0 c 10.77575,0 17.99414,6.25091 17.99414,17.24218 v 7.32618 H 446.8125 V 61.5332 c 0,-11.09903 7.11258,-17.24218 17.99609,-17.24218 z M 203.48438,67.67383 c 6.14217,0 12.39123,0.96963 16.59374,1.93945 v 22.8457 c -3.987,1.5086 -9.58952,3.01758 -16.59374,3.01758 -10.88354,0 -18.64258,-5.4966 -18.64258,-14.11718 0,-8.72837 6.46597,-13.68555 18.64258,-13.68555 z"
         id="svg_2"
         stroke="null" />
    </g>
  </g>
</svg>
